<svg width="495" height="426" viewBox="0 0 495 426" fill="none" xmlns="http://www.w3.org/2000/svg">
<g clip-path="url(#clip0_1_2)">
<path d="M473.089 183.04C473.089 172.334 467.049 163.091 458.31 158.771C458.314 158.583 458.324 158.396 458.324 158.208C458.324 143.364 446.717 131.333 432.399 131.333C418.082 131.333 406.475 143.365 406.475 158.208C406.475 158.632 406.485 159.055 406.505 159.475C398.485 164.045 393.048 172.884 393.048 183.041C393.048 188.547 394.649 193.665 397.388 197.926C394.42 202.298 392.672 207.622 392.672 213.374C392.672 228.217 404.28 240.25 418.597 240.25C423.876 240.25 428.784 238.609 432.881 235.8C436.977 238.609 441.884 240.25 447.165 240.25C461.481 240.25 473.089 228.217 473.089 213.374C473.089 207.745 471.417 202.525 468.565 198.208C471.417 193.889 473.089 188.668 473.089 183.04Z" fill="#1DCE93"/>
<path d="M431.479 227.557C432.152 252.23 432.921 285.829 432.902 309.825H435.259C435.28 283.551 434.358 245.78 433.65 220.794C436.78 219.493 446.912 212.716 449.104 179.143C449.146 178.494 448.654 177.932 448.003 177.891C447.338 177.833 446.794 178.34 446.751 178.99C444.822 208.525 436.74 216.261 433.576 218.177C433.181 204.428 432.872 195.139 432.863 194.875C432.841 194.224 432.331 193.707 431.645 193.736C430.995 193.759 430.485 194.304 430.506 194.955C430.516 195.259 430.929 207.62 431.41 224.986C427.156 223.126 415.208 216.295 416.335 198.471C416.375 197.82 415.881 197.261 415.231 197.22C414.584 197.18 414.021 197.672 413.98 198.322C412.683 218.893 428.019 226.181 431.479 227.557Z" fill="#1B62A9"/>
<path d="M117.405 193.597C117.405 182.891 111.365 173.648 102.626 169.328C102.63 169.14 102.64 168.953 102.64 168.765C102.64 153.921 91.034 141.89 76.715 141.89C62.398 141.89 50.791 153.922 50.791 168.765C50.791 169.189 50.801 169.612 50.821 170.032C42.801 174.602 37.364 183.441 37.364 193.598C37.364 199.104 38.965 204.222 41.704 208.483C38.736 212.855 36.988 218.179 36.988 223.931C36.988 238.774 48.596 250.807 62.913 250.807C68.192 250.807 73.1 249.166 77.197 246.357C81.293 249.166 86.2 250.807 91.481 250.807C105.797 250.807 117.405 238.774 117.405 223.931C117.405 218.302 115.733 213.082 112.881 208.765C115.733 204.446 117.405 199.225 117.405 193.597Z" fill="#1DCE93"/>
<path d="M75.796 238.114C76.469 262.787 77.238 296.386 77.219 320.382H79.576C79.597 294.108 78.675 256.336 77.967 231.351C81.097 230.05 91.229 223.273 93.421 189.7C93.463 189.051 92.971 188.489 92.32 188.448C91.656 188.39 91.111 188.897 91.068 189.547C89.139 219.082 81.057 226.818 77.893 228.734C77.498 214.985 77.189 205.696 77.18 205.432C77.159 204.781 76.648 204.264 75.962 204.293C75.312 204.316 74.802 204.861 74.823 205.512C74.833 205.816 75.246 218.177 75.727 235.543C71.473 233.683 59.525 226.852 60.652 209.028C60.693 208.377 60.198 207.818 59.548 207.777C58.901 207.737 58.338 208.229 58.297 208.879C57 229.45 72.336 236.738 75.796 238.114Z" fill="#1B62A9"/>
<path d="M387.715 129.23H113.523V321.054H387.715V129.23Z" fill="#64748B"/>
<path d="M372.401 189.607H127.673V295.668H372.401V189.607Z" fill="#F8FAFC"/>
<path d="M195.771 198.887H140.792V286.388H195.771V198.887Z" fill="#1DCE93"/>
<path d="M265.761 198.887H210.782V286.388H265.761V198.887Z" fill="#1F2630"/>
<path d="M195.771 198.887H140.792V286.388H195.771V198.887Z" fill="#1F2630"/>
<path d="M104.384 147.638V152.79C104.384 157.839 108.476 161.929 113.524 161.929C118.571 161.929 122.663 157.839 122.663 152.79V147.638H104.384Z" fill="#D83861"/>
<path d="M122.663 147.638V152.79C122.663 157.839 126.755 161.929 131.803 161.929C136.85 161.929 140.943 157.839 140.943 152.79V147.638H122.663Z" fill="#EA9847"/>
<path d="M140.942 147.638V152.79C140.942 157.839 145.034 161.929 150.082 161.929C155.129 161.929 159.222 157.839 159.222 152.79V147.638H140.942Z" fill="#D83861"/>
<path d="M159.222 147.638V152.79C159.222 157.839 163.314 161.929 168.362 161.929C173.41 161.929 177.502 157.839 177.502 152.79V147.638H159.222Z" fill="#EA9847"/>
<path d="M177.501 147.638V152.79C177.501 157.839 181.594 161.929 186.641 161.929C191.688 161.929 195.781 157.839 195.781 152.79V147.638H177.501Z" fill="#D83861"/>
<path d="M195.781 147.638V152.79C195.781 157.839 199.873 161.929 204.921 161.929C209.969 161.929 214.06 157.839 214.06 152.79V147.638H195.781Z" fill="#EA9847"/>
<path d="M214.06 147.638V152.79C214.06 157.839 218.152 161.929 223.2 161.929C228.247 161.929 232.34 157.839 232.34 152.79V147.638H214.06Z" fill="#D83861"/>
<path d="M232.34 147.638V152.79C232.34 157.839 236.431 161.929 241.48 161.929C246.527 161.929 250.619 157.839 250.619 152.79V147.638H232.34Z" fill="#EA9847"/>
<path d="M250.619 147.638V152.79C250.619 157.839 254.713 161.929 259.759 161.929C264.807 161.929 268.899 157.839 268.899 152.79V147.638H250.619Z" fill="#D83861"/>
<path d="M268.898 147.638V152.79C268.898 157.839 272.99 161.929 278.038 161.929C283.086 161.929 287.178 157.839 287.178 152.79V147.638H268.898Z" fill="#EA9847"/>
<path d="M287.178 147.638V152.79C287.178 157.839 291.27 161.929 296.318 161.929C301.365 161.929 305.458 157.839 305.458 152.79V147.638H287.178Z" fill="#D83861"/>
<path d="M305.457 147.638V152.79C305.457 157.839 309.548 161.929 314.597 161.929C319.644 161.929 323.736 157.839 323.736 152.79V147.638H305.457Z" fill="#EA9847"/>
<path d="M323.736 147.638V152.79C323.736 157.839 327.83 161.929 332.876 161.929C337.923 161.929 342.015 157.839 342.015 152.79V147.638H323.736Z" fill="#D83861"/>
<path d="M342.016 147.638V152.79C342.016 157.839 346.109 161.929 351.157 161.929C356.205 161.929 360.297 157.839 360.297 152.79V147.638H342.016Z" fill="#EA9847"/>
<path d="M360.296 147.638V152.79C360.296 157.839 364.388 161.929 369.436 161.929C374.483 161.929 378.576 157.839 378.576 152.79V147.638H360.296Z" fill="#D83861"/>
<path d="M378.575 147.638V152.79C378.575 157.839 382.666 161.929 387.715 161.929C392.762 161.929 396.853 157.839 396.853 152.79V147.638H378.575Z" fill="#EA9847"/>
<path d="M121.275 110.57C115.602 122.907 110.053 135.303 104.384 147.638H122.663C128.162 135.265 133.69 122.904 139.276 110.57H121.275Z" fill="#10B981"/>
<path d="M139.276 110.57C133.691 122.903 128.162 135.264 122.663 147.638H140.942C146.056 135.241 151.306 122.904 156.561 110.57H139.276Z" fill="#1DCE93"/>
<path d="M156.561 110.57C151.306 122.903 146.056 135.241 140.942 147.638H159.221C163.78 135.245 168.479 122.909 173.175 110.57H156.561Z" fill="#10B981"/>
<path d="M173.175 110.57C168.48 122.909 163.781 135.245 159.221 147.638H177.5C181.336 135.249 185.337 122.914 189.309 110.57H173.175Z" fill="#1DCE93"/>
<path d="M189.31 110.57C185.338 122.914 181.337 135.249 177.501 147.638H195.781C198.768 135.254 201.929 122.919 205.038 110.57H189.31Z" fill="#10B981"/>
<path d="M205.038 110.57C201.929 122.919 198.767 135.254 195.781 147.638H214.06C216.104 135.263 218.317 122.922 220.458 110.57H205.038Z" fill="#1DCE93"/>
<path d="M220.458 110.57C218.316 122.922 216.104 135.262 214.06 147.638H232.34C233.377 135.27 234.563 122.924 235.664 110.57H220.458Z" fill="#10B981"/>
<path d="M235.664 110.57C234.562 122.924 233.376 135.27 232.34 147.638H250.619C250.613 135.277 250.73 122.924 250.76 110.57H235.664Z" fill="#1DCE93"/>
<path d="M250.76 110.57C250.73 122.924 250.613 135.277 250.619 147.638H268.899C267.846 135.279 266.887 122.922 265.843 110.57H250.76Z" fill="#10B981"/>
<path d="M265.842 110.57C266.886 122.922 267.845 135.279 268.898 147.638H287.177C285.103 135.281 283.094 122.92 281.012 110.57H265.842Z" fill="#1DCE93"/>
<path d="M281.013 110.57C283.095 122.92 285.103 135.281 287.178 147.638H305.458C302.419 135.282 299.424 122.919 296.373 110.57H281.013Z" fill="#10B981"/>
<path d="M296.373 110.57C299.424 122.919 302.418 135.282 305.458 147.638H323.737C319.822 135.285 315.941 122.922 312.023 110.57H296.373Z" fill="#1DCE93"/>
<path d="M312.022 110.57C315.94 122.922 319.821 135.285 323.736 147.638H342.015C337.342 135.289 332.704 122.928 328.055 110.57H312.022Z" fill="#10B981"/>
<path d="M328.056 110.57C332.704 122.928 337.343 135.289 342.016 147.638H360.296C355.013 135.303 349.806 122.937 344.602 110.57H328.056Z" fill="#1DCE93"/>
<path d="M344.602 110.57C349.806 122.937 355.013 135.303 360.296 147.638H378.575C372.871 135.323 367.294 122.952 361.736 110.57H344.602Z" fill="#10B981"/>
<path d="M379.579 110.57H361.737C367.295 122.952 372.872 135.322 378.576 147.638H396.854C390.946 135.347 385.246 122.968 379.579 110.57Z" fill="#1DCE93"/>
<path d="M354.503 184.871H287.098V321.053H354.503V184.871Z" fill="#1F2630"/>
<path d="M343.276 198.887H298.325V246.812H343.276V198.887Z" fill="#F8FAFC"/>
<path d="M323.657 198.887H317.945V246.812H323.657V198.887Z" fill="#1DCE93"/>
<path d="M344.764 219.994H296.838V225.706H344.764V219.994Z" fill="#1DCE93"/>
<path d="M155.452 288.931C155.452 288.931 146.953 273.346 152.208 269.128C154.6 267.207 160.383 265.649 164.265 271.442C166.246 274.398 165.218 279.232 159.251 289.179L155.452 288.931Z" fill="#EFB049"/>
<path d="M156.136 287.37C156.136 287.37 148.69 272.995 154.158 271.067C155.581 270.565 157.512 272.363 158.011 278.343C158.642 285.962 156.136 287.37 156.136 287.37Z" fill="#E29839"/>
<path d="M157.838 287.261C157.838 287.261 163.187 270.332 169.867 271.199C172.909 271.593 178.041 274.681 176.555 281.494C175.796 284.973 171.598 287.58 160.293 290.171L157.838 287.261Z" fill="#EFB049"/>
<path d="M159.439 286.672C159.439 286.672 164.644 271.342 169.822 273.947C171.173 274.628 171.214 277.266 167.244 281.767C162.189 287.503 159.439 286.672 159.439 286.672Z" fill="#E29839"/>
<path d="M156.811 287.738C156.811 287.738 151.64 270.755 144.951 271.55C141.904 271.913 136.74 274.948 138.157 281.776C138.878 285.262 143.049 287.915 154.326 290.623L156.811 287.738Z" fill="#EFB049"/>
<path d="M155.217 287.132C155.217 287.132 150.172 271.749 144.968 274.3C143.611 274.964 143.543 277.602 147.463 282.146C152.457 287.935 155.217 287.132 155.217 287.132Z" fill="#E29839"/>
<path d="M177.389 291.538H136.785V330.081H177.389V291.538Z" fill="#10B981"/>
<path d="M179.16 288.052H135.014V295.025H179.16V288.052Z" fill="#E29839"/>
<path d="M184.041 300.186C184.041 300.186 189.39 283.258 196.071 284.124C199.113 284.518 204.246 287.607 202.759 294.418C201.998 297.898 197.801 300.506 186.496 303.096L184.041 300.186Z" fill="#19599B"/>
<path d="M185.641 299.596C185.641 299.596 190.846 284.267 196.025 286.872C197.376 287.553 197.417 290.19 193.448 294.692C188.394 300.428 185.641 299.596 185.641 299.596Z" fill="#124881"/>
<path d="M184.976 300.259C184.976 300.259 179.806 283.276 173.116 284.071C170.071 284.433 164.905 287.468 166.322 294.297C167.044 297.783 171.214 300.436 182.492 303.144L184.976 300.259Z" fill="#19599B"/>
<path d="M183.384 299.653C183.384 299.653 178.337 284.269 173.133 286.821C171.776 287.486 171.707 290.123 175.627 294.667C180.623 300.456 183.384 299.653 183.384 299.653Z" fill="#124881"/>
<path d="M208.301 305.672H161.03V326.901H208.301V305.672Z" fill="#1D9AD6"/>
<path d="M209.65 300.544H159.68V307.334H209.65V300.544Z" fill="#64748B"/>
<path d="M206.007 367.185H137.915L128.949 315.757H215.714L206.007 367.185Z" fill="#1FC4F4"/>
<path d="M109.424 310.172H127.599L138.994 374.254H198.093" stroke="#64748B" stroke-width="2.4939" stroke-miterlimit="10" stroke-linecap="round" stroke-linejoin="round"/>
<path d="M191.449 377.532C191.449 382.167 187.691 385.924 183.056 385.924C178.422 385.924 174.663 382.167 174.663 377.532C174.663 372.897 178.422 369.14 183.056 369.14C187.691 369.14 191.449 372.897 191.449 377.532Z" fill="#1FC4F4"/>
<path d="M164.241 377.532C164.241 382.167 160.483 385.924 155.848 385.924C151.212 385.924 147.455 382.167 147.455 377.532C147.455 372.897 151.211 369.14 155.848 369.14C160.483 369.14 164.241 372.897 164.241 377.532Z" fill="#1FC4F4"/>
<path d="M61.493 312.838H59.979V316.752H61.493V312.838Z" fill="#FAA74A"/>
<path d="M69.223 312.838H67.709V316.752H69.223V312.838Z" fill="#FAA74A"/>
<path d="M69.223 312.838H59.979L61.641 311.296H67.809L69.223 312.838Z" fill="#1DCE93"/>
<path d="M76.188 336.731H52.905L54.982 316.126H74.11L76.188 336.731Z" fill="#10B981"/>
<path d="M77.197 339.676H51.713L52.905 336.731H76.188L77.197 339.676Z" fill="#F8FAFC"/>
<path d="M81.598 230.947V238.624C81.598 240.1 84.313 241.292 85.704 241.292C86.659 241.292 87.202 240.771 87.202 238.624V232.352L81.598 230.947Z" fill="#F58C8B"/>
<path d="M92.617 226.339C92.042 225.467 91.718 224.451 91.533 223.513C91.533 223.456 91.533 223.418 91.533 223.418C91.533 222.167 92.279 220.192 91.854 219.331C90.758 217.103 87.277 216.181 84.004 216.181C79.858 216.181 77.06 219.132 77.06 225.069C77.06 228.141 79.312 231.209 81.533 231.604C83.209 231.898 86.452 232.6 86.761 232.667C88.823 233.099 89.829 233.095 90.483 231.604C91.016 230.412 91.07 230.304 91.532 228.872C91.772 228.145 91.933 227.522 92.385 227.522C93.464 227.522 92.762 226.554 92.617 226.339Z" fill="#F58C8B"/>
<path d="M111.98 305.672C111.575 304.893 100.873 286.077 98.717 279.729C89.343 252.122 85.691 246.494 85.669 246.424C84.867 244.356 85.894 242.029 87.96 241.227C90.033 240.426 92.358 241.452 93.164 243.519C93.27 243.797 96.234 250.967 104.218 278.585C105.619 283.439 112.703 298.765 115.391 303.915L111.98 305.672Z" fill="#F58C8B"/>
<path d="M95.34 260.402C96.591 259.741 97.849 259.127 99.139 258.555C95.24 247.172 93.238 243.714 93.164 243.52C92.358 241.453 90.034 240.426 87.96 241.228C85.894 242.03 84.867 244.356 85.669 246.425C85.685 246.475 87.055 250.034 91.269 262.174C92.694 261.757 94.028 261.094 95.34 260.402Z" fill="#10B981"/>
<path d="M107.025 328.673C106.936 327.689 99.71 301.606 97.235 294.047H71.798C71.798 294.047 75.382 331.193 75.276 331.73C75.137 332.476 59.993 366.775 56.099 371.037L60.163 375.868C62.738 373.342 67.064 370.56 68.961 367.639C70.857 364.707 84.893 343.822 87.075 334.675C88.865 327.197 86.263 303.924 86.263 303.924C88.563 307.767 89.364 311.243 90.761 316.038C91.602 318.931 95.36 332.434 95.455 333.002C95.501 333.282 97.24 372.362 97.24 379.156H104.171C104.938 371.565 107.117 330.223 107.117 330.223C107.106 329.671 107.069 329.165 107.025 328.673Z" fill="#64748B"/>
<path d="M101.412 303.503C98.045 287.584 95.456 285.112 95.456 277.718V269.979C95.456 266.902 97.267 259.745 97.295 256.734C97.369 249.03 91.9 239.889 87.482 239.889H81.167C75.049 239.889 74.011 249.861 74.011 253.809C74.011 258.577 72.648 267.167 72.648 276.618C72.648 286.369 71.171 291.598 70.245 303.502L101.412 303.503Z" fill="#10B981"/>
<path d="M79.212 240.21C69.667 240.21 64.948 253.34 62.69 279.697C62.135 286.157 62.994 304.426 62.978 305.491H66.816C66.743 303.629 67.905 285.625 68.41 279.697C70.648 253.592 77.322 248.247 79.212 248.247C81.429 248.247 83.229 246.45 83.229 244.229C83.229 242.012 81.429 240.21 79.212 240.21Z" fill="#F58C8B"/>
<path d="M79.212 240.21C72.598 240.21 67.524 246.375 64.454 258.92L72.866 261.817C75.333 251.395 77.9 248.247 79.212 248.247C81.429 248.247 83.229 246.45 83.229 244.229C83.229 242.012 81.429 240.21 79.212 240.21Z" fill="#10B981"/>
<path d="M89.614 216.362C88.329 215.526 84.399 212.662 79.471 215.549C75.163 218.07 75.515 220.465 72.602 225.246C70.538 228.633 70.602 234.508 72.557 241.292C73.424 244.303 74.779 247.976 73.653 253.778C72.529 259.578 70.84 263.435 73.175 265.764C75.499 268.093 75.805 269.781 75.419 271.791C73.624 281.195 88.124 279.366 84.818 272.192C82.975 268.175 86.121 266.177 85.396 263.192C83.602 255.799 87.283 251.703 86.072 248.89C84.646 245.609 83.228 241.814 84.579 240.132C85.731 238.698 85.396 236.559 83.402 233.395L83.373 232.508C83.373 232.508 83.389 232.508 83.402 232.508C83.402 229.707 83.276 228.803 83.276 228.803C83.276 228.803 83.194 227.279 82.7 227.246C82.069 227.207 81.659 227.022 81.391 226.777C80.742 225.59 81.399 224.859 81.718 224.817C82.916 224.658 83.3 226.282 83.3 226.282C83.3 226.554 84.22 226.704 84.22 226.298C84.22 224.488 86.48 223.612 86.932 221.992C87.741 219.09 92.001 220.274 92.005 220.274C92.495 218.411 90.604 217.008 89.614 216.362Z" fill="#2C2825"/>
<path d="M109.164 385.14C112.744 384.016 111.557 380.131 110.27 380.117C109.322 380.105 108.21 380.086 106.851 380.086C104.841 380.086 103.413 379.156 103.541 379.156H97.915C97.773 379.268 97.646 379.486 97.574 379.864L97.552 385.139H109.164V385.14Z" fill="#FDB84E"/>
<path d="M58.949 383.802C62.105 385.832 64.328 382.431 63.513 381.433C62.916 380.699 62.217 379.831 61.347 378.789C60.058 377.244 59.859 375.552 59.941 375.65L56.336 371.33C56.157 371.294 55.909 371.336 55.571 371.521L51.507 374.885L58.949 383.802Z" fill="#FDB84E"/>
<path d="M111.805 305.44L111.387 304.63L114.797 302.87L115.224 303.693C116.284 304.093 117.98 306.298 118.402 307.802C119.063 310.168 118.075 312.565 116.745 312.752C115.392 312.943 114.477 311.417 113.804 309.308C113.696 308.961 113.435 308.743 113.339 309.263C113.144 310.301 112.799 310.767 112.472 310.701C111.979 310.599 111.203 307.523 111.805 305.44Z" fill="#F58C8B"/>
<path d="M66.803 306.258L66.818 305.348L62.982 305.279L62.962 306.206C62.19 307.036 61.648 309.764 61.935 311.298C62.389 313.712 64.337 315.423 65.613 315.003C66.91 314.575 67.056 312.801 66.724 310.612C66.667 310.252 66.805 309.942 67.123 310.365C67.755 311.21 68.272 311.476 68.536 311.271C68.933 310.961 68.266 307.859 66.803 306.258Z" fill="#F58C8B"/>
<path d="M437.344 204.934H348.381V337.941H437.344V204.934Z" fill="#64748B"/>
<path d="M400.128 209.802C400.128 210.434 399.461 210.947 398.638 210.947H387.089C386.267 210.947 385.599 210.434 385.599 209.802V209.565C385.599 208.933 386.267 208.42 387.089 208.42H398.638C399.461 208.42 400.128 208.932 400.128 209.565V209.802Z" fill="#F8FAFC"/>
<path d="M432.122 213.89H353.604V326.644H432.122V213.89Z" fill="#F8FAFC"/>
<path d="M396.163 332.659C396.163 334.482 394.686 335.958 392.864 335.958C391.041 335.958 389.563 334.481 389.563 332.659C389.563 330.836 391.041 329.359 392.864 329.359C394.686 329.359 396.163 330.836 396.163 332.659Z" fill="#F8FAFC"/>
<path d="M346.322 236.745C346.076 238.076 345.962 238.743 345.757 240.077C345.253 243.347 347.687 246.01 350.954 246.01C354.223 246.01 357.111 243.339 357.6 240.07C357.8 238.737 357.91 238.072 358.143 236.744C353.468 236.744 351.108 236.744 346.322 236.745Z" fill="#D83861"/>
<path d="M358.143 236.744C357.91 238.072 357.8 238.737 357.6 240.07C357.111 243.339 359.523 246.009 362.791 246.009C366.059 246.009 368.901 243.331 369.292 240.064C369.452 238.731 369.539 238.066 369.725 236.74C365.129 236.741 362.818 236.743 358.143 236.744Z" fill="#EA9847"/>
<path d="M369.725 236.74C369.539 238.067 369.452 238.731 369.292 240.064C368.901 243.332 371.359 246.01 374.628 246.01C377.896 246.01 380.646 243.324 380.882 240.059C380.978 238.726 381.032 238.062 381.147 236.739C376.6 236.739 374.32 236.739 369.725 236.74Z" fill="#D83861"/>
<path d="M381.147 236.738C381.032 238.062 380.978 238.725 380.882 240.058C380.646 243.323 383.196 246.009 386.464 246.009C389.732 246.009 392.368 243.316 392.421 240.052C392.443 238.72 392.457 238.056 392.491 236.735C387.959 236.735 385.696 236.737 381.147 236.738Z" fill="#EA9847"/>
<path d="M392.492 236.735C392.457 238.057 392.444 238.72 392.422 240.052C392.369 243.316 395.033 246.009 398.302 246.009C401.57 246.009 404.091 243.308 403.962 240.046C403.909 238.714 403.884 238.052 403.836 236.732C399.287 236.733 397.024 236.734 392.492 236.735Z" fill="#D83861"/>
<path d="M403.835 236.732C403.883 238.052 403.908 238.714 403.961 240.046C404.09 243.309 406.869 246.009 410.138 246.009C413.406 246.009 415.835 243.302 415.551 240.039C415.436 238.709 415.376 238.047 415.258 236.729C410.662 236.73 408.383 236.731 403.835 236.732Z" fill="#EA9847"/>
<path d="M415.258 236.73C415.376 238.048 415.436 238.71 415.551 240.04C415.835 243.302 418.706 246.01 421.974 246.01C425.243 246.01 427.626 243.294 427.243 240.034C427.086 238.703 427.006 238.042 426.84 236.726C422.165 236.729 419.853 236.729 415.258 236.73Z" fill="#D83861"/>
<path d="M426.84 236.727C427.006 238.043 427.086 238.704 427.243 240.035C427.626 243.295 430.542 246.011 433.81 246.011C437.079 246.011 439.483 243.289 439.086 240.029C438.924 238.699 438.838 238.039 438.659 236.726C433.874 236.725 431.515 236.726 426.84 236.727Z" fill="#EA9847"/>
<path d="M351.686 213.889C349.912 221.504 348.024 229.091 346.323 236.745C351.109 236.744 353.469 236.744 358.144 236.744C359.72 229.099 361.444 221.506 363.063 213.89L351.686 213.889Z" fill="#10B981"/>
<path d="M363.063 213.889C361.443 221.506 359.719 229.098 358.144 236.743C362.819 236.742 365.13 236.74 369.726 236.739C370.977 229.105 372.342 221.505 373.61 213.888H363.063V213.889Z" fill="#1DCE93"/>
<path d="M373.609 213.889C372.341 221.506 370.976 229.105 369.725 236.74C374.32 236.739 376.6 236.739 381.147 236.738C381.942 229.111 382.812 221.505 383.599 213.889H373.609Z" fill="#10B981"/>
<path d="M383.599 213.889C382.812 221.505 381.942 229.111 381.147 236.738C385.696 236.737 387.959 236.735 392.492 236.735C392.764 229.115 393.063 221.504 393.303 213.889H383.599Z" fill="#1DCE93"/>
<path d="M393.303 213.889C393.063 221.503 392.764 229.115 392.492 236.735C397.025 236.734 399.287 236.733 403.835 236.733C403.581 229.115 403.317 221.502 403.009 213.89L393.303 213.889Z" fill="#10B981"/>
<path d="M403.009 213.889C403.317 221.501 403.58 229.115 403.835 236.732C408.383 236.731 410.662 236.73 415.258 236.73C414.542 229.111 413.774 221.499 412.985 213.889H403.009Z" fill="#1DCE93"/>
<path d="M412.984 213.889C413.773 221.499 414.541 229.111 415.257 236.73C419.853 236.729 422.164 236.729 426.839 236.727C425.79 229.106 424.658 221.498 423.518 213.89L412.984 213.889Z" fill="#10B981"/>
<path d="M423.519 213.889C424.659 221.497 425.791 229.105 426.84 236.726C431.515 236.726 433.874 236.725 438.659 236.724C437.477 229.098 436.175 221.494 434.881 213.889H423.519Z" fill="#1DCE93"/>
<path d="M419.523 267.789H365.415V291.813H419.523V267.789Z" fill="#10B981"/>
<path d="M379.915 286.75V272.721H383.082C383.917 272.721 384.67 272.941 385.342 273.381C385.916 273.754 386.326 274.332 386.572 275.115C386.706 275.532 386.774 276.028 386.774 276.603C386.774 277.543 386.524 278.296 386.024 278.863C385.815 279.102 385.569 279.284 385.285 279.411C385.755 279.59 386.154 279.945 386.482 280.474C386.698 280.832 386.858 281.294 386.963 281.861C387.015 282.152 387.042 282.476 387.042 282.835C387.042 283.723 386.874 284.476 386.539 285.095C386.278 285.58 385.909 285.967 385.431 286.259C384.894 286.587 384.361 286.751 383.831 286.751H379.915V286.75ZM382.198 278.449H383.082C383.738 278.449 384.178 278.128 384.402 277.487C384.484 277.249 384.525 276.954 384.525 276.603C384.525 276.021 384.383 275.581 384.1 275.283C383.839 275.007 383.499 274.869 383.082 274.869H382.198V278.449ZM382.198 284.658H383.082C383.798 284.658 384.294 284.289 384.57 283.551C384.667 283.298 384.716 283.007 384.716 282.679C384.716 281.896 384.567 281.325 384.268 280.967C384 280.639 383.604 280.475 383.083 280.475H382.199V284.658H382.198Z" fill="#F8FAFC"/>
<path d="M392.199 286.907C391.267 286.907 390.476 286.582 389.828 285.933C389.179 285.284 388.854 284.497 388.854 283.573V272.732H390.924V283.551C390.924 283.887 391.043 284.172 391.282 284.407C391.521 284.642 391.808 284.759 392.144 284.759C392.479 284.759 392.765 284.641 392.999 284.407C393.234 284.172 393.352 283.886 393.352 283.551V272.732H395.556V283.573C395.556 284.512 395.228 285.303 394.572 285.945C393.915 286.586 393.124 286.907 392.199 286.907Z" fill="#F8FAFC"/>
<path d="M400.064 280.876L397.233 272.72H399.56L401.126 277.754L402.681 272.72H405.019L402.177 280.876V286.75H400.062V280.876H400.064Z" fill="#F8FAFC"/>
<path d="M417.659 278.914L416.797 281.964" stroke="#F8FAFC" stroke-width="0.9348" stroke-miterlimit="10" stroke-linecap="round" stroke-linejoin="round"/>
<path d="M405.158 290.972L408.139 289.895" stroke="#F8FAFC" stroke-width="0.9348" stroke-miterlimit="10" stroke-linecap="round" stroke-linejoin="round"/>
<path d="M405.064 285.847H408.233" stroke="#F8FAFC" stroke-width="0.9348" stroke-miterlimit="10" stroke-linecap="round" stroke-linejoin="round"/>
<path d="M412.592 277.99V281.16" stroke="#F8FAFC" stroke-width="0.9348" stroke-miterlimit="10" stroke-linecap="round" stroke-linejoin="round"/>
<path d="M406.648 280.124L409.049 282.194" stroke="#F8FAFC" stroke-width="0.9348" stroke-miterlimit="10" stroke-linecap="round" stroke-linejoin="round"/>
<path d="M420.463 298.571L424.935 294.48L417.878 286.765L420.901 284L410.405 283.084L410.383 293.619L413.406 290.855L420.463 298.571Z" fill="#64748B"/>
<path d="M305.637 211.375V219.485C305.637 221.05 302.592 222.323 301.025 222.323C299.955 222.323 299.348 221.771 299.348 219.485V211.375H305.637Z" fill="#F58C8B"/>
<path d="M293.756 205.945C294.365 205.008 294.72 203.915 294.919 202.908C294.919 202.847 294.919 202.808 294.919 202.808C294.919 201.465 294.115 199.345 294.576 198.418C295.75 196.029 299.489 195.035 302.996 195.035C307.456 195.035 310.462 198.206 310.462 204.579C310.462 207.88 308.035 211.174 305.659 211.595C303.855 211.915 300.367 212.667 300.035 212.737C297.827 213.201 296.749 213.198 296.038 211.595C295.473 210.319 295.417 210.2 294.917 208.663C294.659 207.883 294.479 207.212 294.001 207.212C292.847 207.211 293.599 206.175 293.756 205.945Z" fill="#F58C8B"/>
<path d="M298.016 193.726C301.556 192.864 305.78 191.827 309.103 195.345C315.053 201.642 312.021 208.712 310.462 210.564C309.066 212.221 305.419 211.937 305.419 211.637C305.419 210.974 305.419 210.703 305.419 209.65C305.419 209.196 305.214 209.377 306.113 208.368C307.764 206.536 306.745 205.275 306.301 205.275C305.47 205.275 305.556 206.626 304.021 203.383C303.03 201.289 302.194 200.654 299.146 200.61C297.225 200.58 295.492 199.98 294.564 199.335C292.908 198.186 292.715 193.597 292.715 193.597C293.671 194.58 295.748 194.279 298.016 193.726Z" fill="#2C2825"/>
<path d="M262.2 262.651L262.965 262.344L264.266 265.579L263.489 265.891C263.042 266.817 260.906 268.157 259.512 268.404C257.324 268.793 255.242 267.688 255.184 266.471C255.123 265.227 256.58 264.539 258.538 264.11C258.864 264.046 259.081 263.828 258.621 263.695C257.698 263.427 257.304 263.076 257.391 262.782C257.527 262.341 260.37 261.917 262.2 262.651Z" fill="#F58C8B"/>
<path d="M324.985 360.216C325.62 359.513 326.473 358.576 327.294 357.671C328.594 356.233 328.789 354.186 328.789 354.186L332.517 350.56C332.517 350.56 333.158 350.313 333.731 350.878C334.868 352.003 337.452 354.258 337.452 354.258C337.452 354.258 331.763 360.55 331.162 361.218C326.859 365.962 323.955 361.348 324.985 360.216Z" fill="#1D9AD6"/>
<path d="M316.6 324.072C315.541 321.404 314.733 276.405 314.733 276.405H300.576C300.576 276.405 300.466 308.901 307.318 326.865C308.463 329.876 326.368 351.809 328.789 354.185L332.549 350.549C328.897 346.544 318.713 329.394 316.6 324.072Z" fill="#64748B"/>
<path d="M288.077 366.716C284.73 365.696 285.84 362.173 287.045 362.159C287.928 362.151 288.964 362.137 290.228 362.132C291.955 362.128 292.257 361.357 292.384 361.287H298.588C298.712 361.39 298.83 361.588 298.903 361.931L298.926 366.716H288.077Z" fill="#1D9AD6"/>
<path d="M287.815 276.405H302.251C302.251 283.121 297.058 321.754 297.058 325.092C297.058 329.751 298.575 353.848 298.575 361.287H292.384C292.384 361.287 286.068 328.566 286.068 324.229C286.067 317.828 287.815 284.444 287.815 276.405Z" fill="#64748B"/>
<path d="M289.522 229.072C290.888 220.264 297.458 219.564 299.956 219.564C301.348 219.564 304.13 219.564 305.521 219.564C314.062 219.564 317.395 230.097 317.395 234.265C317.395 245.308 317.371 276.894 317.371 276.894L285.157 276.879C285.155 276.88 287.682 240.938 289.522 229.072Z" fill="#1D9AD6"/>
<path d="M262.083 261.243C285.186 253.407 290.758 225.107 290.814 224.842C291.294 222.55 293.529 221.074 295.832 221.551C298.134 222.025 299.607 224.273 299.13 226.57C298.868 227.843 291.657 257.607 264 266.987L262.083 261.243Z" fill="#1D9AD6"/>
<path d="M323.261 290.246H321.608V294.519H323.261V290.246Z" fill="#F8FAFC"/>
<path d="M314.822 290.246H313.169V294.519H314.822V290.246Z" fill="#F8FAFC"/>
<path d="M313.169 290.246H323.261L321.447 288.561H314.714L313.169 290.246Z" fill="#10B981"/>
<path d="M305.565 316.334H330.986L328.718 293.836H307.832L305.565 316.334Z" fill="#10B981"/>
<path d="M304.462 319.549H332.287L330.986 316.334H305.565L304.462 319.549Z" fill="#F8FAFC"/>
<path d="M316.031 284.695L315.845 283.89L319.242 283.105L319.431 283.922C320.277 284.506 321.27 286.826 321.298 288.239C321.345 290.461 319.931 292.348 318.719 292.216C317.482 292.082 317.026 290.538 316.905 288.535C316.893 288.204 316.711 287.956 316.508 288.39C316.101 289.261 315.693 289.595 315.416 289.463C315.001 289.263 315.022 286.388 316.031 284.695Z" fill="#F58C8B"/>
<path d="M317.209 232.291L320.068 283.479L315.361 284.877C315.361 284.877 312.809 246.878 317.209 232.291Z" fill="#1D9AD6"/>
<path d="M416.31 94.73C416.291 87.761 411.578 81.903 405.168 80.144C405.173 79.965 405.181 79.783 405.181 79.6C405.181 71.224 398.389 64.436 390.014 64.436C384.859 64.436 380.309 67.008 377.57 70.937C374.931 68.334 371.309 66.726 367.312 66.726C359.617 66.726 353.319 72.675 352.748 80.222C352.55 80.215 352.349 80.207 352.146 80.207C343.987 80.207 337.352 86.656 337.013 94.73H416.31Z" fill="#1FC4F4"/>
<path d="M193.551 79.584C193.532 72.615 188.819 66.757 182.408 64.998C182.414 64.819 182.421 64.637 182.421 64.455C182.421 56.079 175.629 49.291 167.254 49.291C162.099 49.291 157.549 51.863 154.81 55.791C152.171 53.188 148.549 51.58 144.553 51.58C136.858 51.58 130.559 57.529 129.988 65.076C129.791 65.068 129.59 65.061 129.386 65.061C121.228 65.061 114.592 71.51 114.253 79.584H193.551Z" fill="#1FC4F4"/>
</g>
<defs>
<clipPath id="clip0_1_2">
<rect width="494.159" height="425.197" fill="white"/>
</clipPath>
</defs>
</svg>
